<svg width="32" height="32" viewBox="0 0 32 32" fill="none" xmlns="http://www.w3.org/2000/svg">
  <rect width="32" height="32" rx="6" fill="#0F1117"/>
  <g transform="translate(5, 2) scale(0.31)">
    <path fill-rule="evenodd" d="M36 5C50.91 5 63 17.09 63 32C63 43.5 56.4 51.7 49.6 59.6C44.5 65.55 39.6 71.2 36 76C32.4 71.2 27.5 65.55 22.4 59.6C15.6 51.7 9 43.5 9 32C9 17.09 21.09 5 36 5Z M19.5 32C24 24.5 30 21 36 21C42 21 48 24.5 52.5 32C48 39.5 42 43 36 43C30 43 24 39.5 19.5 32Z" fill="#ffffff"/>
    <circle cx="36" cy="32" r="4.2" fill="#0EA5E9"/>
  </g>
</svg>
